<svg xmlns="http://www.w3.org/2000/svg" width="778" height="1024"><path d="M778 633l1-1q0-1-1-1.5t-2-.5h-1L637 748h-1q-1 0-2-.5t-1-1.5l7-96q0-1-.5-2t-1.5-1-1.5.5l-.5.5-161 262v-52q0-38 6.5-92T503 648q16-65 45-130l-48-21q-17 22-34.5 42T430 578v-1l-13.5 19-17.5 62q-4 41-6 117.5T389 913q-2-61-4-137.5T379 658q-4-43-17.5-62L348 577q-18-18-35.5-37.5T279 499l-1-2-48 21q29 65 44 128 15 64 21.5 117.5T303 856v53L143 649l-2-2q-1 0-2 1t-1 2l7 96q0 1-.5 1.5t-1.5.5h-2L4 630H2l-1.5.5L0 632v1l105 238v1l-.5 1.5-1.5.5h-1l-83-19h-1q-1 0-1.5.5T16 857v1.5l1 .5 202 127h1q1 0 2-.5t1-1.5-.5-1h-.5l-46-104v-1q0-1 .5-1.5t1.5-.5h1l209 148h2l209-148h1q1 0 1.5.5t.5 1.5v1l-46 104v1l.5 1.5 1.5.5h1l202-127q1 0 1.5-.5t.5-1.5-1-1.5-2-.5l-84 19h-1q-1 0-1.5-.5t-.5-1.5v-1zM389 97q14 2 26 8.5t20 17.5q5-5 8.5-10.5T449 100q-11-9-18.5-46L423 17 389 0l-34 17-7.5 37-18.5 46q2 7 5.5 12.5T342 123q9-11 21-17.5t26-8.5zm-54 258l54-35 54 34q0 1 .5 1h.5q2 0 3-1t1-2l-1-1q-8-22-22-83.5t0-135.5l-8-8-28-9q-20 1-28 9l-8 8q13 74-1 135.5T330 351v1q0 2 1 3t2 1 1.5-.5l.5-.5zM111 548l30 14q1 0 2 .5l1 .5q2 0 3.5-1t2.5-2q8-9 26.5-31t30.5-32q15-13 53.5-22.5L299 465l83 83q1 1 3 2t4 1 4-1 3-2l87-85 36.5 10.5L570 497q12 11 31 32.5t26 30.5q1 1 2.5 2t3.5 1q1 0 1.5-.5t1.5-.5l31-14q2 0 3-2t1-4v-2l-1-2q-9-15-28.5-48.5T620 441l-26-6q-26-7-63-19.5T454 385q-39-18-65-41-27 23-66 41t-76 30.5-64 19.5l-26 6q-1 15-20.5 48.5T107 538q0 1-.5 2t-.5 2q0 2 1.5 4t3.5 2z" fill="#ccf7fb"/></svg>