<svg xmlns="http://www.w3.org/2000/svg" width="831" height="1024"><path d="M625 305q-7-5-36-24-28-18-61.5-40.5T463 197q-30-21-42-29-1-1-2.5-1h-6l-2.5 1q-12 8-42 29-31 21-64.5 43.5T242 281q-29 19-37 24-11 6-31.5 8t-33.5 1q-4 0-6.5 3t-2.5 7v1q2 21 8 72t13 106.5T166 607t11 63q9 34 28.5 60t22.5 29v1q44 42 104.5 79.5T411 887q1 1 2 1h5l3-1h-1q18-10 78.5-47.5T603 760l1-1q2-3 21.5-29t28.5-60q4-15 11-63t14-103.5T692 397t9-72v-1q0-4-3-7t-7-3q-13 1-33.5-1t-32.5-8zm108-101q-41-5-76-24.5T571 122q-48-35-91-71T422 2q-1-1-3-1.5t-4-.5q-1 0-3 .5T409 2q-15 13-58.5 49T260 122q-51 38-86 58t-76 24q-7 1-15 2t-16 1q-14 0-28-2t-28-5h2q-1 0-1.5-.5T10 199q-4 0-7 3t-3 7v1q4 69 10 135 6 67 15 131.5T45 604q11 64 25 126l-4-21q9 30 24 56t35 48h-1q23 24 55 53 32 28 70 57t79 55q42 26 83 45 1 0 2 .5t3 .5q1 0 2-.5t2-.5q41-19 83-45 41-26 79-55t70-57q32-29 55-53 19-22 34-47.5t24-54.5v-2q13-55 23-113 10-59 18.5-121T821 348q6-64 10-130v-8q0-4-3-7t-7-3h-2q-12 3-26 5t-28 2q-9 0-17-.5t-16-2.5h1zm-45 487q-10 39-32.5 68.5T631 792l-1 1q-26 24-58 48t-63 44-55 35q-24 14-34 19-1 1-2 1.5t-3 .5q-1 0-2-.5t-2-1.5q-10-5-34-19-25-15-55.5-35T259 841t-58-48h-1q-2-3-24.5-33T143 691q-5-18-13-74t-16-120-15-122q-7-57-10-80v-1q0-4 3-7t7-3q14 0 38-1.5t38-9.5q9-5 42-27t71.5-48 73.5-50q35-23 48-32 1-1 2.5-1h6l2.5 1q13 9 48 32 35 24 73.5 50t71.5 48 42 27q14 8 37.5 9.5T732 284q4 0 7 3t3 7v1q-3 23-10 81-7 57-15 121t-16 120-13 74z" fill="#ccf7fb"/></svg>